<svg width="184" height="68" viewBox="0 0 184 68" fill="none" xmlns="http://www.w3.org/2000/svg">
<path d="M76.0712 55.8L64.1948 12.9782H70.9903L79.333 46.14H79.7303L88.4076 12.9782H95.1403L103.818 46.1609H104.215L112.537 12.9782H119.353L107.456 55.8H100.953L91.9412 23.7254H91.6066L82.5948 55.8H76.0712ZM130.926 56.5109C128.891 56.5109 127.051 56.1345 125.406 55.3818C123.761 54.6151 122.458 53.507 121.496 52.0573C120.548 50.6076 120.074 48.8303 120.074 46.7254C120.074 44.9133 120.423 43.4218 121.12 42.2509C121.817 41.08 122.758 40.153 123.943 39.47C125.127 38.787 126.452 38.2712 127.915 37.9227C129.379 37.5742 130.87 37.3094 132.39 37.1282C134.313 36.9051 135.875 36.7239 137.073 36.5845C138.272 36.4312 139.143 36.1873 139.687 35.8527C140.231 35.5182 140.503 34.9745 140.503 34.2218V34.0754C140.503 32.2494 139.987 30.8345 138.955 29.8309C137.938 28.8273 136.418 28.3254 134.397 28.3254C132.292 28.3254 130.633 28.7924 129.421 29.7264C128.222 30.6464 127.393 31.6709 126.933 32.8L121.057 31.4618C121.754 29.5103 122.772 27.9351 124.11 26.7364C125.462 25.5236 127.016 24.6454 128.773 24.1018C130.529 23.5442 132.376 23.2654 134.313 23.2654C135.596 23.2654 136.955 23.4188 138.391 23.7254C139.84 24.0182 141.193 24.5618 142.447 25.3563C143.716 26.1509 144.754 27.287 145.563 28.7645C146.371 30.2282 146.775 32.1309 146.775 34.4727V55.8H140.67V51.4091H140.419C140.015 52.2176 139.408 53.0121 138.6 53.7927C137.791 54.5733 136.753 55.2215 135.484 55.7373C134.216 56.253 132.696 56.5109 130.926 56.5109ZM132.285 51.4927C134.014 51.4927 135.491 51.1512 136.718 50.4682C137.959 49.7851 138.9 48.893 139.541 47.7918C140.196 46.6767 140.523 45.4848 140.523 44.2164V40.0764C140.3 40.2994 139.868 40.5085 139.227 40.7036C138.6 40.8848 137.882 41.0451 137.073 41.1845C136.265 41.31 135.477 41.4285 134.711 41.54C133.944 41.6376 133.303 41.7212 132.787 41.7909C131.574 41.9442 130.466 42.2021 129.463 42.5645C128.473 42.927 127.678 43.4497 127.079 44.1327C126.493 44.8018 126.201 45.6939 126.201 46.8091C126.201 48.3564 126.772 49.5273 127.915 50.3218C129.058 51.1024 130.515 51.4927 132.285 51.4927ZM157.904 67.8436C156.97 67.8436 156.12 67.767 155.353 67.6136C154.587 67.4742 154.015 67.3209 153.639 67.1536L155.144 62.0309C156.287 62.3376 157.305 62.47 158.197 62.4282C159.089 62.3864 159.877 62.0518 160.56 61.4245C161.257 60.7973 161.87 59.7727 162.4 58.3509L163.173 56.2182L151.422 23.6836H158.113L166.247 48.6073H166.581L174.715 23.6836H181.427L168.191 60.0864C167.578 61.7591 166.797 63.1739 165.85 64.3309C164.902 65.5018 163.773 66.38 162.462 66.9654C161.152 67.5509 159.633 67.8436 157.904 67.8436Z" fill="#16066B"/>
<rect y="13" width="46" height="46" fill="#16066B"/>
<path d="M20.1799 44.76V12.6436H26.4317V44.76H20.1799ZM23.3371 7.68819C22.2499 7.68819 21.3159 7.32576 20.5353 6.60092C19.7687 5.86213 19.3853 4.98395 19.3853 3.96637C19.3853 2.93486 19.7687 2.05667 20.5353 1.33182C21.3159 0.593038 22.2499 0.223644 23.3371 0.223644C24.4244 0.223644 25.3514 0.593038 26.1181 1.33182C26.8987 2.05667 27.289 2.93486 27.289 3.96637C27.289 4.98395 26.8987 5.86213 26.1181 6.60092C25.3514 7.32576 24.4244 7.68819 23.3371 7.68819Z" fill="white"/>
</svg>
